<?xml version="1.0" encoding="utf-8"?>
<!-- Generator: Adobe Illustrator 16.0.0, SVG Export Plug-In . SVG Version: 6.00 Build 0)  -->
<!DOCTYPE svg PUBLIC "-//W3C//DTD SVG 1.1//EN" "http://www.w3.org/Graphics/SVG/1.1/DTD/svg11.dtd">
<svg version="1.1" id="Capa_1" xmlns="http://www.w3.org/2000/svg" xmlns:xlink="http://www.w3.org/1999/xlink" x="0px" y="0px"
	 width="308.5px" height="112.5px" viewBox="0 0 308.5 112.5" enable-background="new 0 0 308.5 112.5" xml:space="preserve">
<g>
	<path fill="#FFFFFF" d="M124.674,36.115V11.147h11.464c1.218,0,2.344,0.252,3.376,0.756c1.031,0.504,1.917,1.161,2.655,1.97
		c0.738,0.809,1.318,1.735,1.74,2.778c0.422,1.043,0.633,2.092,0.633,3.147c0,1.453-0.316,2.808-0.949,4.061
		c-0.633,1.255-1.513,2.281-2.638,3.077l5.626,9.179h-7.737l-4.747-7.666h-2.566v7.666H124.674z M131.531,22.472h4.325
		c0.422,0,0.814-0.234,1.179-0.704c0.363-0.47,0.545-1.126,0.545-1.969c0-0.867-0.211-1.53-0.633-1.987
		c-0.422-0.458-0.844-0.686-1.266-0.686h-4.149V22.472z"/>
	<path fill="#FFFFFF" d="M150.555,36.115V11.147h6.857v24.968H150.555z"/>
	<circle fill="#FFFFFF" cx="174.168" cy="5.856" r="3.476"/>
	<g>
		<polygon fill="none" points="84.443,84.245 99.311,84.245 92.011,60.742 		"/>
		<polygon fill="none" points="267.391,84.245 282.258,84.245 274.958,60.742 		"/>
		<path fill="none" d="M42.421,63.235c-1.424-1.661-3.175-2.938-5.252-3.828c-2.078-0.891-4.422-1.335-7.033-1.335h-8.992v37.569
			h8.992c2.67,0,5.043-0.475,7.122-1.425c2.077-0.949,3.813-2.271,5.208-3.962c1.393-1.692,2.462-3.679,3.205-5.965
			c0.742-2.284,1.113-4.792,1.113-7.523c0-2.788-0.371-5.325-1.113-7.611C44.928,66.87,43.846,64.897,42.421,63.235z"/>
		<path fill="#FFFFFF" d="M53.684,54.511c-2.642-2.849-5.92-5.104-9.837-6.766c-3.917-1.662-8.488-2.493-13.71-2.493H6.543v63.209
			h23.593c4.747,0,9.065-0.756,12.953-2.27c3.887-1.514,7.212-3.65,9.971-6.411c2.76-2.759,4.881-6.082,6.366-9.97
			c1.483-3.887,2.226-8.236,2.226-13.044c0-4.331-0.668-8.412-2.003-12.24C58.313,60.698,56.324,57.359,53.684,54.511z
			 M45.671,84.29c-0.743,2.286-1.812,4.272-3.205,5.965c-1.396,1.691-3.131,3.013-5.208,3.962c-2.078,0.95-4.451,1.425-7.122,1.425
			h-8.992V58.072h8.992c2.611,0,4.955,0.444,7.033,1.335c2.077,0.89,3.828,2.167,5.252,3.828c1.425,1.662,2.507,3.635,3.25,5.92
			c0.742,2.286,1.113,4.823,1.113,7.611C46.784,79.498,46.413,82.006,45.671,84.29z"/>
		<path fill="#FFFFFF" d="M86.134,45.252L61.83,108.461h15.491l4.808-14.155h19.675l4.896,14.155h15.491L97.975,45.252H86.134z
			 M84.443,84.245l7.567-23.503l7.3,23.503H84.443z"/>
		<path fill="#FFFFFF" d="M178.159,98.048c-4.347-8.781-0.617-16.564,5.281-23.723V45.252h-14.6v37.125l-29.468-37.125h-11.396
			v63.209h14.6V72.315l29.112,36.146h11.752V84.824C179.973,88.939,177.788,93.32,178.159,98.048z"/>
		<path fill="#FFFFFF" d="M204.79,45.252h-11.646v12.82h5.632C202.457,53.801,205.031,49.609,204.79,45.252z"/>
		<path fill="#FFFFFF" d="M241.662,56.202v-10.95h-25.761c1.104,3.128,1.097,6.577-0.512,10.259
			c-0.386,0.854-0.902,1.708-1.52,2.562h10.879l-32.851,39.438v10.95h50.123V95.642h-31.783L241.662,56.202z"/>
		<path fill="#FFFFFF" d="M280.923,45.252h-11.84l-24.306,63.209h15.491l4.808-14.155h19.675l4.896,14.155h15.49L280.923,45.252z
			 M267.391,84.245l7.567-23.503l7.3,23.503H267.391z"/>
		<path fill="#FFFFFF" d="M209.608,32.373c-5.084-4.522-12.638-7.492-19.318-8.058c9.759,5.533,13.543,10.5,13.806,15.256h10.578
			C213.731,36.902,211.943,34.479,209.608,32.373z"/>
	</g>
	<g>
		<path fill="#FFFFFF" d="M185.228,19.059c-0.563-1.522-1.367-2.882-2.409-4.079c-1.043-1.194-2.297-2.155-3.763-2.882
			c-0.244-0.121-0.732,0.854-1.22,1.39c-0.635,0.697-1.435,1.26-1.831,2.16c-0.638,0.388-0.715,0.815-0.357,1.522
			c0.887,1.753,1.229,3.661,1.336,5.618c0.074,1.342-0.351,2.618-0.455,3.935c-0.053,0.059-0.068,0.125-0.045,0.201
			c-0.053,0.092-0.106,0.184-0.16,0.275c-0.428,0.792-0.706,1.651-1.251,2.396c-0.676,0.92-1.351,1.05-2.113,0.205
			c-1.381-1.532-1.796-3.459-1.958-5.415c-0.188-2.264,0.422-4.433,1.209-6.532c0.314-0.837,0.315-1.417-0.325-2.185
			c-0.75-0.899-1.574-1.677-2.52-2.304c-0.46-0.306-0.61-0.657-0.597-1.013c-1.22,0.652-2.304,1.469-3.235,2.472
			c-1.078,1.159-1.917,2.503-2.514,4.025c-0.598,1.524-0.896,3.106-0.896,4.747c0,1.618,0.286,3.189,0.861,4.713
			c0.574,1.524,1.383,2.878,2.426,4.061c1.043,1.185,2.298,2.141,3.763,2.867c1.465,0.727,3.089,1.091,4.87,1.091
			c1.759,0,3.376-0.353,4.854-1.056s2.743-1.636,3.798-2.796c1.055-1.161,1.881-2.497,2.479-4.009
			c0.598-1.513,0.897-3.089,0.897-4.73C186.072,22.143,185.791,20.584,185.228,19.059z"/>
		<path fill="#FFFFFF" d="M173.969,14.232c0.66-0.814,1.268-1.627,1.943-2.379c0.267-0.297,0.601-0.464,0.94-0.542
			c-0.846-0.199-1.733-0.305-2.666-0.305c-1.177,0-2.283,0.17-3.33,0.479C172.037,12.214,172.961,13.234,173.969,14.232z"/>
	</g>
	<path fill-rule="evenodd" clip-rule="evenodd" fill="#F4F3F4" d="M161.012,7.796c1.621,0.296,3.446,0.966,5.187,1.843
		c0.634,0.319,0.579,1.025,0.353,1.601c-0.22,0.563-0.789,0.78-1.295,0.55c-1.668-0.761-3.359-1.396-5.172-1.748
		c-0.621-0.121-1.032-0.776-0.822-1.521C159.466,7.8,160.059,7.709,161.012,7.796z"/>
	<path fill-rule="evenodd" clip-rule="evenodd" fill="#F4F3F4" d="M180.582,11.11c-0.618,0.033-0.964-0.224-1.139-0.66
		c-0.167-0.419-0.011-0.814,0.36-1.042c1.743-1.068,3.586-1.857,5.677-1.884c0.597-0.007,1.009,0.285,1.074,0.888
		c0.06,0.561-0.302,0.926-0.812,1.016c-1.728,0.301-3.385,0.786-4.92,1.652C180.726,11.134,180.587,11.109,180.582,11.11z"/>
	<path fill-rule="evenodd" clip-rule="evenodd" fill="#F1F1F2" d="M176.53,26.723c0.104-1.316,0.529-2.593,0.455-3.935
		c-0.107-1.957-0.449-3.865-1.336-5.618c-0.358-0.707-0.281-1.135,0.357-1.522c0.587,1.284,1.498,2.394,1.817,3.831
		c0.521,2.341,0.088,4.54-0.714,6.719C177.011,26.463,176.867,26.707,176.53,26.723z"/>
	<path fill-rule="evenodd" clip-rule="evenodd" fill="#F1F1F2" d="M176.325,27.199c0.053-0.092,0.106-0.184,0.16-0.275
		C176.432,27.016,176.378,27.107,176.325,27.199z"/>
</g>
</svg>
