<?xml version="1.0" encoding="utf-8"?>
<!-- Generator: Adobe Illustrator 16.0.0, SVG Export Plug-In . SVG Version: 6.00 Build 0)  -->
<!DOCTYPE svg PUBLIC "-//W3C//DTD SVG 1.1//EN" "http://www.w3.org/Graphics/SVG/1.1/DTD/svg11.dtd">
<svg version="1.1" id="Capa_1" xmlns="http://www.w3.org/2000/svg" xmlns:xlink="http://www.w3.org/1999/xlink" x="0px" y="0px"
	 width="83.085px" height="566.93px" viewBox="0 0 83.085 566.93" enable-background="new 0 0 83.085 566.93" xml:space="preserve">
<g>
	<rect x="2.094" y="202.475" fill-rule="evenodd" clip-rule="evenodd" fill="#DC9831" width="80.991" height="80.99"/>
	<path fill="#CB5F34" d="M83.085,566.93H42.589l0,0c0-22.364,18.128-40.494,40.496-40.494l0,0V566.93"/>
	<path fill="#C33F4A" d="M42.589,566.93H2.094l0,0c0-22.364,18.131-40.494,40.495-40.494h0.001V566.93"/>
	<path fill-rule="evenodd" clip-rule="evenodd" d="M2.094,202.884V161.98h80.991v40.904c0,22.139-17.948,40.086-40.087,40.086H42.18
		C20.042,242.97,2.094,225.023,2.094,202.884z"/>
	<circle fill-rule="evenodd" clip-rule="evenodd" fill="#C33F4A" cx="22.342" cy="303.712" r="20.248"/>
	<circle fill-rule="evenodd" clip-rule="evenodd" cx="62.837" cy="303.712" r="20.248"/>
	<path fill-rule="evenodd" clip-rule="evenodd" fill="#9A999E" d="M2.094,404.949c0-22.364,18.131-40.494,40.496-40.494
		c22.364,0,40.496,18.13,40.496,40.494H2.094z"/>
	<path fill-rule="evenodd" clip-rule="evenodd" fill="#CB5F34" d="M83.085,323.961c0,22.364-18.132,40.494-40.496,40.494
		c-22.365,0-40.496-18.13-40.496-40.494H83.085z"/>
	<rect x="2.094" y="445.446" fill-rule="evenodd" clip-rule="evenodd" width="80.991" height="80.989"/>
	<polygon fill-rule="evenodd" clip-rule="evenodd" points="83.085,121.484 83.085,161.98 42.589,161.98 	"/>
	<polygon fill-rule="evenodd" clip-rule="evenodd" points="42.589,161.98 2.094,161.98 2.094,121.484 	"/>
	<polygon fill-rule="evenodd" clip-rule="evenodd" points="83.085,445.446 2.094,445.446 42.589,404.949 	"/>
	<g>
		<path fill="#CB5F34" d="M42.589,105.884c13.749,0,24.893-11.146,24.893-24.894H17.696
			C17.696,94.738,28.841,105.884,42.589,105.884z"/>
		<path fill="#C33F4A" d="M83.085,0H2.094v80.99h15.602l0,0c0-13.749,11.145-24.894,24.894-24.894S67.482,67.241,67.482,80.99l0,0
			h15.603V0z"/>
	</g>
</g>
</svg>
